<svg width="169" height="106" viewBox="0 0 169 106" fill="none" xmlns="http://www.w3.org/2000/svg">
<g clip-path="url(#clip0_134_16)">
<path d="M31.2449 67.2856C24.7479 57.7641 18.3025 48.3197 11.7865 38.7712H38.2976C37.7901 39.5546 37.336 40.2743 36.863 40.9822C36.2867 41.8444 35.8773 43.0237 35.0568 43.4616C34.2346 43.9011 32.9961 43.6109 31.9399 43.6125C28.3035 43.6193 24.6671 43.6159 20.8363 43.6159C21.4159 44.4932 21.8856 45.2766 22.4446 45.9963C22.5839 46.1741 23.014 46.1892 23.3098 46.1909C26.2049 46.2043 29.0982 46.1993 31.9932 46.1993H33.2042C32.4835 47.3299 31.7489 48.2341 31.2914 49.2557C30.4416 51.1479 29.1033 51.9582 27.0099 51.5422C26.7914 51.4985 26.5558 51.5371 26.1533 51.5371C26.3683 51.8844 26.5111 52.1343 26.6728 52.3709C28.9692 55.7427 31.2604 59.1178 33.574 62.4779C33.8699 62.9056 33.8923 63.2126 33.5895 63.6538C32.7965 64.813 32.0637 66.0107 31.2449 67.289V67.2856Z" fill="#7436F1"/>
<path d="M18.8856 67.284C12.5778 57.7474 6.33191 48.3046 0 38.7311C1.75972 38.7311 3.37839 38.7076 4.99534 38.7579C5.21896 38.7646 5.47871 39.0984 5.63868 39.335C9.9322 45.6357 14.2154 51.9415 18.502 58.2473C18.6431 58.4536 18.7927 58.6549 19.0181 58.9703C19.8558 57.7675 20.6436 56.6335 21.502 55.4039C22.4257 56.6855 23.303 57.8799 24.1407 59.1011C24.2422 59.2487 24.2026 59.596 24.0908 59.7621C22.393 62.2448 20.6729 64.7107 18.8873 67.2857L18.8856 67.284Z" fill="#1D1D1D"/>
<path d="M34.6148 62.0786C33.7478 60.7601 32.9359 59.5825 32.2048 58.3579C32.0775 58.1449 32.1979 57.6785 32.3631 57.4303C35.2873 53.0335 38.2374 48.6518 41.1823 44.2685C42.2953 42.6128 43.4271 40.9705 44.5125 39.298C44.7947 38.8618 45.1043 38.7075 45.6221 38.7159C47.2407 38.7461 48.8611 38.726 50.6122 38.726C45.2522 46.5516 39.9731 54.2581 34.6148 62.0786Z" fill="#1D1D1D"/>
</g>
<path d="M65.1069 63L57.7894 42.2816H61.6685L67.3991 59.2678H66.2236L72.2187 42.2816H75.0106L80.8 59.2678H79.7714L85.5902 42.2816H89.2636L81.8873 63H78.7722L73.1885 47.0718H73.8645L68.222 63H65.1069ZM97.0156 63.2939C95.3895 63.2939 93.9886 62.9902 92.8131 62.3829C91.6376 61.7755 90.7266 60.9135 90.0801 59.7967C89.4531 58.68 89.1397 57.3576 89.1397 55.8294C89.1397 54.3404 89.4433 53.0376 90.0507 51.9208C90.6776 50.8041 91.5299 49.9322 92.6074 49.3053C93.7046 48.6588 94.9486 48.3355 96.3397 48.3355C97.7111 48.3355 98.8866 48.6294 99.8662 49.2171C100.846 49.8049 101.6 50.6376 102.129 51.7151C102.678 52.7927 102.952 54.0759 102.952 55.5649V56.6522H92.1078V54.5363H100.366L99.8956 54.9771C99.8956 53.6449 99.6017 52.6261 99.0139 51.9208C98.4262 51.1959 97.5837 50.8335 96.4866 50.8335C95.6637 50.8335 94.9584 51.0294 94.3707 51.4212C93.8025 51.7935 93.3617 52.3322 93.0482 53.0376C92.7544 53.7233 92.6074 54.5461 92.6074 55.5061V55.7118C92.6074 56.7894 92.7739 57.6808 93.107 58.3861C93.4401 59.0914 93.9397 59.6204 94.6058 59.9731C95.2719 60.3257 96.0948 60.502 97.0744 60.502C97.8776 60.502 98.6809 60.3845 99.4841 60.1494C100.287 59.8947 101.022 59.5029 101.688 58.9739L102.717 61.4424C102.031 62.0106 101.169 62.4612 100.131 62.7943C99.0923 63.1273 98.0539 63.2939 97.0156 63.2939ZM131.168 45.5437V41.9584H135.282V45.5437H131.168ZM131.403 63V48.6294H135.077V63H131.403ZM143.125 63L136.895 48.6294H140.804L145.241 59.7673H144.36L148.944 48.6294H152.618L146.299 63H143.125ZM161.186 63.2939C159.56 63.2939 158.16 62.9902 156.984 62.3829C155.809 61.7755 154.898 60.9135 154.251 59.7967C153.624 58.68 153.311 57.3576 153.311 55.8294C153.311 54.3404 153.614 53.0376 154.222 51.9208C154.849 50.8041 155.701 49.9322 156.778 49.3053C157.875 48.6588 159.12 48.3355 160.511 48.3355C161.882 48.3355 163.058 48.6294 164.037 49.2171C165.017 49.8049 165.771 50.6376 166.3 51.7151C166.849 52.7927 167.123 54.0759 167.123 55.5649V56.6522H156.279V54.5363H164.537L164.066 54.9771C164.066 53.6449 163.773 52.6261 163.185 51.9208C162.597 51.1959 161.755 50.8335 160.658 50.8335C159.835 50.8335 159.129 51.0294 158.542 51.4212C157.973 51.7935 157.533 52.3322 157.219 53.0376C156.925 53.7233 156.778 54.5461 156.778 55.5061V55.7118C156.778 56.7894 156.945 57.6808 157.278 58.3861C157.611 59.0914 158.111 59.6204 158.777 59.9731C159.443 60.3257 160.266 60.502 161.245 60.502C162.049 60.502 162.852 60.3845 163.655 60.1494C164.458 59.8947 165.193 59.5029 165.859 58.9739L166.888 61.4424C166.202 62.0106 165.34 62.4612 164.302 62.7943C163.263 63.1273 162.225 63.2939 161.186 63.2939Z" fill="#1D1D1D"/>
<path d="M120.864 63.2939C119.963 63.2939 119.072 63.1959 118.19 63C117.328 62.8041 116.515 62.5298 115.751 62.1771C115.006 61.8245 114.36 61.4131 113.811 60.9429L115.046 58.0629C115.947 58.7486 116.877 59.2678 117.837 59.6204C118.797 59.9535 119.787 60.12 120.806 60.12C122.04 60.12 123 59.8065 123.686 59.1796C124.391 58.5331 124.744 57.671 124.744 56.5935C124.744 55.4963 124.411 54.6147 123.744 53.9486C123.078 53.2629 122.167 52.92 121.011 52.92C120.169 52.92 119.415 53.0865 118.749 53.4196C118.082 53.7331 117.475 54.2229 116.926 54.889H114.399V42.2816H127.124V45.3967H118.073V51.9796H117.103C117.612 51.2939 118.278 50.7649 119.101 50.3927C119.944 50.0204 120.874 49.8343 121.893 49.8343C123.206 49.8343 124.342 50.1184 125.302 50.6865C126.282 51.2351 127.036 52.009 127.565 53.0082C128.113 53.9878 128.388 55.1339 128.388 56.4465C128.388 57.7984 128.084 58.9935 127.477 60.0318C126.869 61.0506 125.997 61.8539 124.861 62.4416C123.744 63.0098 122.412 63.2939 120.864 63.2939Z" fill="#7436F1"/>
<defs>
<clipPath id="clip0_134_16">
<rect width="50.6122" height="28.5714" fill="white" transform="translate(0 38.7142)"/>
</clipPath>
</defs>
</svg>
